<svg xmlns="http://www.w3.org/2000/svg" width="22" height="30" viewBox="0 0 22 30">
  <defs>
    <linearGradient id="glass" x1="0" y1="0" x2="1" y2="0">
      <stop offset="0" stop-color="#160f13"/>
      <stop offset="0.48" stop-color="#4b3940"/>
      <stop offset="1" stop-color="#110a0d"/>
    </linearGradient>
    <linearGradient id="blood" x1="0" y1="0" x2="0" y2="1">
      <stop offset="0" stop-color="#8a2636"/>
      <stop offset="1" stop-color="#3c0710"/>
    </linearGradient>
  </defs>
  <rect x="6" y="1" width="10" height="4" rx="1" fill="#8f7655" stroke="#21171a" stroke-width="1"/>
  <path d="M5 5h12v3l2 3v15c0 2-1 3-3 3H6c-2 0-3-1-3-3V11l2-3z" fill="url(#glass)" stroke="#b79a6b" stroke-width="1.2"/>
  <path d="M5 17h12v9c0 .8-.4 1-1 1H6c-.6 0-1-.2-1-1z" fill="url(#blood)" opacity=".92"/>
  <path d="M7 9v15" stroke="#d7c5aa" stroke-width=".8" opacity=".35"/>
  <path d="M14 12h3M14 16h3M14 20h3M14 24h3" stroke="#d7c5aa" stroke-width=".8" opacity=".8"/>
</svg>
