<svg xmlns="http://www.w3.org/2000/svg" width="1400" height="1578" viewBox="0 0 1400 1578">
<rect width="100%" height="100%" fill="#18171A"/>
<style>text{font-family:Arial,sans-serif}.title{font-size:34px;font-weight:700;fill:#F2E9DA}.sub{font-size:17px;fill:#BFAE9D}.name{font-size:20px;font-weight:700;fill:#F3E8D8}.body{font-size:14px;fill:#CFC4BC}</style>
<text x="42" y="54" class="title">Gamble Battle - Phase 1 Trait Visual Calibration</text>
<text x="42" y="88" class="sub">Vector grammar index for palette, form, surface, motion, cost and do-don&#x27;t channels.</text>
<text x="42" y="118" class="sub">Authoritative review raster: trait_visual_bible_phase1.png</text>
<rect x="42" y="150" width="1316" height="52" rx="9" fill="#242126" stroke="#5A5057"/>
<text x="58" y="182" class="name">Aegis</text>
<text x="245" y="181" class="body">form=nested | surface=closure | motion=inward | cost=calcify | pass=protected void inside closing mass | fail=clean shield badge</text>
<rect x="42" y="214" width="1316" height="52" rx="9" fill="#242126" stroke="#5A5057"/>
<text x="58" y="246" class="name">Arcanist</text>
<text x="245" y="245" class="body">form=taper | surface=syntax | motion=rewrite | cost=erase | pass=one precise locus of illegal notation | fail=purple wizard stars</text>
<rect x="42" y="278" width="1316" height="52" rx="9" fill="#242126" stroke="#5A5057"/>
<text x="58" y="310" class="name">Blessed</text>
<text x="245" y="309" class="body">form=burden | surface=gilded_cracks | motion=transfer | cost=stigmata | pass=disgrace and weight before radiance | fail=clean halo hero</text>
<rect x="42" y="342" width="1316" height="52" rx="9" fill="#242126" stroke="#5A5057"/>
<text x="58" y="374" class="name">Bulwark</text>
<text x="245" y="373" class="body">form=compress | surface=pressure | motion=rebound | cost=rupture | pass=stored force in compressed mass | fail=ordinary castle plate</text>
<rect x="42" y="406" width="1316" height="52" rx="9" fill="#242126" stroke="#5A5057"/>
<text x="58" y="438" class="name">Cartel</text>
<text x="245" y="437" class="body">form=hierarchy | surface=ledger | motion=cascade | cost=stamp | pass=rank and ownership made structural | fail=coin-covered merchant</text>
<rect x="42" y="470" width="1316" height="52" rx="9" fill="#242126" stroke="#5A5057"/>
<text x="58" y="502" class="name">Catalyst</text>
<text x="245" y="501" class="body">form=splice | surface=seam | motion=fuse | cost=weld | pass=two incompatible systems forced together | fail=sparkle alchemist</text>
<rect x="42" y="534" width="1316" height="52" rx="9" fill="#242126" stroke="#5A5057"/>
<text x="58" y="566" class="name">Chronomancer</text>
<text x="245" y="565" class="body">form=stagger | surface=ticks | motion=desync | cost=age | pass=offset cadence visible in repeated intervals | fail=clock-face costume</text>
<rect x="42" y="598" width="1316" height="52" rx="9" fill="#242126" stroke="#5A5057"/>
<text x="58" y="630" class="name">Executioner</text>
<text x="245" y="629" class="body">form=shear | surface=cutline | motion=sever | cost=split | pass=single decisive threshold and follow-through | fail=skull-and-axe emblem</text>
<rect x="42" y="662" width="1316" height="52" rx="9" fill="#242126" stroke="#5A5057"/>
<text x="58" y="694" class="name">Exile</text>
<text x="245" y="693" class="body">form=broken_orbit | surface=weathered_edge | motion=repel | cost=missing | pass=asymmetric absence that resists reunion | fail=hooded wanderer</text>
<rect x="42" y="726" width="1316" height="52" rx="9" fill="#242126" stroke="#5A5057"/>
<text x="58" y="758" class="name">Fortified</text>
<text x="245" y="757" class="body">form=strata | surface=settlement | motion=settle | cost=compact | pass=load-bearing density and low movement | fail=generic stone wall</text>
<rect x="42" y="790" width="1316" height="52" rx="9" fill="#242126" stroke="#5A5057"/>
<text x="58" y="822" class="name">Harmony</text>
<text x="245" y="821" class="body">form=counterpoint | surface=moire | motion=oscillate | cost=cancel | pass=two unequal rhythms briefly align | fail=heart-shaped friendship</text>
<rect x="42" y="854" width="1316" height="52" rx="9" fill="#242126" stroke="#5A5057"/>
<text x="58" y="886" class="name">Kaleidoscope</text>
<text x="245" y="885" class="body">form=fracture | surface=chromatic_fault | motion=refract | cost=sensory | pass=weathered perception fracture with dark rest | fail=glossy rainbow crystal</text>
<rect x="42" y="918" width="1316" height="52" rx="9" fill="#242126" stroke="#5A5057"/>
<text x="58" y="950" class="name">Liaison</text>
<text x="245" y="949" class="body">form=triangulate | surface=tension_lines | motion=relay | cost=tether | pass=relationship shown by stressed intervals | fail=decorative chain links</text>
<rect x="42" y="982" width="1316" height="52" rx="9" fill="#242126" stroke="#5A5057"/>
<text x="58" y="1014" class="name">Mentor</text>
<text x="245" y="1013" class="body">form=unequal_pair | surface=transfer_bands | motion=teach | cost=drain | pass=visible unequal transfer and dependence | fail=kindly teacher robe</text>
<rect x="42" y="1046" width="1316" height="52" rx="9" fill="#242126" stroke="#5A5057"/>
<text x="58" y="1078" class="name">Mogul</text>
<text x="245" y="1077" class="body">form=accrue | surface=tallies | motion=compound | cost=hollow | pass=survival accumulates into top-heavy mass | fail=gold coin king</text>
<rect x="42" y="1110" width="1316" height="52" rx="9" fill="#242126" stroke="#5A5057"/>
<text x="58" y="1142" class="name">Overload</text>
<text x="245" y="1141" class="body">form=coil | surface=burnout | motion=burst | cost=conduit | pass=pressure outruns its failing container | fail=electric orb aura</text>
<rect x="42" y="1174" width="1316" height="52" rx="9" fill="#242126" stroke="#5A5057"/>
<text x="58" y="1206" class="name">Sanguine</text>
<text x="245" y="1205" class="body">form=circulate | surface=capillary | motion=return | cost=thrombose | pass=circulation, appetite and repair share one path | fail=single vampire stereotype</text>
<rect x="42" y="1238" width="1316" height="52" rx="9" fill="#242126" stroke="#5A5057"/>
<text x="58" y="1270" class="name">Scholar</text>
<text x="245" y="1269" class="body">form=archive | surface=palimpsest | motion=layer | cost=bury | pass=knowledge stored in ordered bodily layers | fail=book-and-mortarboard</text>
<rect x="42" y="1302" width="1316" height="52" rx="9" fill="#242126" stroke="#5A5057"/>
<text x="58" y="1334" class="name">Striker</text>
<text x="245" y="1333" class="body">form=thrust | surface=impact | motion=advance | cost=recoil | pass=forward commitment with little retreat mass | fail=generic sword fighter</text>
<rect x="42" y="1366" width="1316" height="52" rx="9" fill="#242126" stroke="#5A5057"/>
<text x="58" y="1398" class="name">Titan</text>
<text x="245" y="1397" class="body">form=monument | surface=growth_rings | motion=expand | cost=hollow_growth | pass=scale with internal biological consequence | fail=healthy heroic giant</text>
<rect x="42" y="1430" width="1316" height="52" rx="9" fill="#242126" stroke="#5A5057"/>
<text x="58" y="1462" class="name">Trader</text>
<text x="245" y="1461" class="body">form=exchange | surface=wear_marks | motion=swap | cost=deplete | pass=reciprocal flow with visible loss each cycle | fail=market-arrow logo</text>
<rect x="42" y="1494" width="1316" height="52" rx="9" fill="#242126" stroke="#5A5057"/>
<text x="58" y="1526" class="name">Vindicator</text>
<text x="245" y="1525" class="body">form=converge | surface=erosion | motion=hunt | cost=self_erase | pass=all pressure narrows toward one condemned point | fail=angry revenge eye</text>
</svg>